<?xml version="1.0" standalone="no"?>
<!DOCTYPE svg PUBLIC "-//W3C//DTD SVG 20010904//EN"
 "http://www.w3.org/TR/2001/REC-SVG-20010904/DTD/svg10.dtd">
<svg version="1.0" xmlns="http://www.w3.org/2000/svg"
 width="512.000000pt" height="512.000000pt" viewBox="0 0 512.000000 512.000000"
 preserveAspectRatio="xMidYMid meet">
<metadata>
Created by potrace 1.11, written by Peter Selinger 2001-2013
</metadata>
<g transform="translate(0.000000,512.000000) scale(0.100000,-0.100000)"
fill="#000000" stroke="none">
<path d="M0 2560 l0 -2560 2560 0 2560 0 0 2560 0 2560 -2560 0 -2560 0 0
-2560z m1932 1754 c23 -17 58 -53 76 -80 30 -45 32 -55 32 -129 -1 -116 -39
-185 -130 -235 -44 -24 -49 -25 -337 -28 l-293 -4 0 -1156 c-1 -636 -5 -1176
-9 -1200 -9 -45 -68 -142 -87 -142 -6 0 -17 -6 -23 -14 -27 -33 -190 -62 -205
-37 -3 5 -18 12 -33 16 -43 10 -108 70 -132 120 l-21 45 0 1350 c0 1338 0
1351 20 1394 25 51 61 88 115 116 39 19 58 20 512 17 l471 -2 44 -31z m2271
21 c53 -22 102 -69 126 -120 21 -44 21 -52 21 -845 0 -792 0 -801 -21 -842
-43 -84 -134 -138 -234 -138 -98 1 -168 42 -225 135 l-25 40 -3 448 c-1 246
-5 447 -8 447 -2 0 -193 -188 -424 -417 -231 -230 -426 -423 -434 -430 -8 -7
-26 -15 -40 -19 -15 -3 -29 -10 -32 -15 -7 -12 -141 -12 -148 0 -3 5 -18 12
-33 16 -35 8 -120 93 -128 128 -4 15 -11 30 -16 33 -12 7 -12 141 0 148 5 3
12 17 15 32 4 14 12 32 19 40 7 8 200 204 430 435 231 231 417 422 415 424 -2
2 -204 5 -448 7 l-445 3 -40 25 c-93 57 -134 127 -135 225 0 97 49 183 130
229 l45 26 801 0 c690 0 807 -2 837 -15z m-29 -2296 c60 -17 121 -68 151 -125
l26 -50 -3 -471 -3 -471 -30 -43 c-17 -24 -50 -57 -74 -74 l-43 -30 -1371 -3
-1371 -2 -51 31 c-50 30 -105 99 -105 132 0 9 -4 19 -10 22 -25 15 -2 165 32
210 22 29 56 65 62 65 4 0 21 10 37 23 l31 22 1191 5 1192 5 5 295 c5 290 5
296 29 334 71 114 182 159 305 125z"/>
</g>
</svg>
